# xmcd CD database file generated by OrangeCD 5.1
#
# Track frame offsets:
#	150
#	17237
#	33535
#	47055
#	61290
#	79897
#	94667
#	112300
#	132027
#	144965
#	162510
#	180255
#	191140
#	205602
#	223892
#	243455
#	263457
#	278780
#	293152
#	311250
#
# Disc length: 4359 seconds
#
# Revision: 0
# Processed by: cddbd v1.5PL3 Copyright (c) Steve Scherf et al.
# Submitted via: OrangeCD 5.1
#
DISCID=22110514
DTITLE=Sean Kenny - Line Dance Crazy - Disc 1
DYEAR=1999
DGENRE=Country
TTITLE0=Line Dance Crazy
TTITLE1=Adalida
TTITLE2=All Shook Up
TTITLE3=I Like It, I Love It
TTITLE4=Friends In Low Places
TTITLE5=Queen Of Memphis
TTITLE6=Black Coffee
TTITLE7=South Side Of Dixie
TTITLE8=Blue Clear Sky
TTITLE9=Here Comes The rain
TTITLE10=Chattahoochee
TTITLE11=Sold
TTITLE12=Boot Scootin' Boogie
TTITLE13=Pocket Full Of Gold
TTITLE14=Ain't Goin' Down Till The Sun Comes Up
TTITLE15=Neon Moon
TTITLE16=One Step Forward
TTITLE17=There Goes My Heart
TTITLE18=Look At Us
TTITLE19=Baby Likes To Rock It
EXTD=
EXTT0=
EXTT1=
EXTT2=
EXTT3=
EXTT4=
EXTT5=
EXTT6=
EXTT7=
EXTT8=
EXTT9=
EXTT10=
EXTT11=
EXTT12=
EXTT13=
EXTT14=
EXTT15=
EXTT16=
EXTT17=
EXTT18=
EXTT19=
PLAYORDER=
